<svg xmlns="http://www.w3.org/2000/svg" width="100%" height="100%" viewBox="0 0 242 138" version="1.1" xml:space="preserve" stroke-linejoin="round"><style>.s0{fill:#aa3083;}.s1{fill:#000f8e;}</style><path d="M195.05 49.08c0.1 0.04 0.2 0.09 0.3 0.14 0.2 0.12 0.38 0.28 0.54 0.45 0.18 0.12 0.35 0.24 0.52 0.36 0.26 0.14 0.47 0.33 0.64 0.56l0-30.46 -28.78 0 0 1.99 26.8 0 0 26.96ZM196.79 86.29c-0.03 0.03-0.06 0.07-0.1 0.1 -0.04 0.12-0.09 0.23-0.15 0.33 -0.31 0.54-0.77 0.83-1.31 1.07 0.11-0.04 0.21-0.09 0.31-0.13 -0.16 0.08-0.33 0.14-0.49 0.22l0 27.16 -26.8 0 0 1.99 28.79 0 0-31c-0.08 0.1-0.16 0.19-0.24 0.28" fill="#aa3083"/><path d="M195.13 49.24l19.24 19.24 -19.32 19.32c0 0.91 0.01 2.04 0 2.81l22.13-22.12 -22.05-22.36 0 3.12ZM148.59 0l-19.25 18.99 0 3.06 0.01 0 19.24-19.24 19.32 19.32c0.91 0 2.04-0.01 2.81 0l-22.12-22.12ZM148.96 137.14l-19.25-18.99 0-3.06 0.01 0 19.24 19.24 19.32-19.32c0.91 0 2.04 0.01 2.81 0l-22.12 22.13Z" fill="#000f8e"/><path d="M91.23 41.34c-5.93 5.82-8.9 11.73-8.9 17.75 0 2.42 0.71 5.43 2.14 9.03 -15.92 9.94-32.61 17.48-50.07 22.61 -9.84 2.9-19.78 4.96-29.8 6.23 -1.27 1.76-2.83 3.33-4.6 4.67 9.85-1.41 19.83-3.6 29.95-6.58 19.15-5.65 37.67-13.78 55.54-24.38 0.3 0.67 0.49 1.03 0.57 1.1l3.49 6.74c3.9 7.64 5.86 13.31 5.86 17 0 2.23-1.31 4.47-3.94 6.73l2.82 0.9 2.48-1.39 25.01-13.66 24.56-13.51c6.91-3.79 12.02-6.61 15.33-8.48l4.05-2.24c-4.21 7.68-7.9 15.57-11.1 23.66 -3.19 8.09-4.79 13.64-4.79 16.63 4.81-0.97 10.37-1.98 16.67-3.04 8.26-1.4 14.04-2.39 17.35-2.99l-2.03-1.55c-4.58 0.93-8.08 1.39-10.48 1.39 -3.45 0-5.18-0.84-5.18-2.54 0-2.13 1.73-7.38 5.18-15.76 3.45-8.37 6.35-14.31 8.68-17.8 4.05-6.08 9.78-10.97 17.18-14.66 7.4-3.69 15.19-5.53 23.38-5.53 6.23 0 9.35 0.86 9.35 2.59 0 0.57-0.26 1.26-0.79 2.09l-0.56 0.95 4.17 0.3 8.9-13.12c-8.26 0-16.56 1.03-24.9 3.09 -6.31 1.56-12.22 3.58-17.74 6.06 -5.52 2.48-14.52 7.13-26.98 13.94l-52.61 28.82 -7.44 4.04c-0.6 0.33-1.8 1.02-3.61 2.04 -1.2-5.28-3.94-11.63-8.22-19.05 -2.48-4.29-4.13-7.31-4.96-9.08 8.33-5.91 14.31-10.8 17.91-14.63 3.61-3.84 5.41-7.24 5.41-10.2 0-4.58-3.04-6.88-9.13-6.88 -6.16 0-12.21 2.91-18.14 8.73ZM92.59 52.16c0-3.95 1.05-7.34 3.15-10.15 2.1-2.81 4.66-4.21 7.66-4.21 3.98 0 5.97 1.28 5.97 3.84 0 2.43-1.37 5.43-4.11 9.03 -2.74 3.59-6.36 7.12-10.87 10.57 -1.2-3.49-1.8-6.52-1.8-9.07Z" fill="url(#_Linear1)"/><defs><linearGradient id="_Linear1" x1="0" y1="0" x2="1" y2="0" gradientUnits="userSpaceOnUse" gradientTransform="matrix(241.63,0,0,241.63,0.000577813,68.369)"><stop offset="0" style="stop-color:#721658;stop-opacity:1"/><stop offset="100" style="stop-color:#07006c;stop-opacity:1"/></linearGradient></defs></svg>
